<svg xmlns="http://www.w3.org/2000/svg" width="49" height="37" viewBox="0 0 49 37" fill="none">
          <g id="logo">
            <path
              id="Vector"
              d="M0.0328121 2.80908C0.0656242 5.14897 0.0656242 5.16027 0.371871 5.70286C0.754679 6.38109 1.19217 6.67499 2.75622 7.31931C3.44527 7.6019 4.07964 7.9071 4.16714 7.99754C4.30933 8.14449 4.34214 9.30878 4.39682 16.611C4.46245 25.7785 4.44057 25.3941 5.10775 27.4853C5.52337 28.7853 5.54525 28.8079 6.1468 28.5027C7.07648 28.0166 7.69991 27.2027 7.8421 26.2532L7.91866 25.7898H8.77177C9.76707 25.7898 9.76707 25.7785 9.47177 26.9767C9.15458 28.2314 8.24678 29.4296 7.19679 29.9948C6.96711 30.1078 6.10305 30.4695 5.28275 30.7747C3.48902 31.453 2.85465 31.826 1.9906 32.7303C1.20311 33.5555 0.62343 34.5276 0.339059 35.4997C-0.0218747 36.6979 -0.0765616 36.6414 1.37811 36.6414H2.63591V35.7371V34.8328H3.5109H4.38589V35.7371V36.6414H5.26088H6.13587V35.7371V34.8328H7.01086H7.88585V35.7371V36.6414L9.0124 36.6301H10.128L11.7358 34.5389L13.3327 32.459L13.978 32.9903C14.328 33.2842 14.6342 33.5329 14.6561 33.5442C14.678 33.5668 14.317 34.0755 13.8467 34.6746C13.2014 35.511 13.0373 35.7823 13.1467 35.8615C13.2342 35.918 13.8467 36.0988 14.503 36.2684L15.7061 36.5849H26.5888C38.3792 36.5849 38.0183 36.6075 39.9542 35.9519C43.8589 34.652 47.0526 31.3399 48.3432 27.2706C48.4744 26.8749 48.5729 26.5019 48.5729 26.4454C48.5729 26.3889 48.2776 26.7393 47.9276 27.2253C45.6526 30.3565 42.1636 32.4251 38.4011 32.9112C36.8918 33.1033 36.4652 33.0694 36.159 32.7416L35.8855 32.4703V29.3731C35.8855 27.0784 35.9293 26.0045 36.0496 25.2698C36.148 24.7159 36.1808 24.2524 36.1371 24.2411C36.0933 24.2185 32.9215 22.6812 29.1043 20.8274L22.1591 17.4475L18.7685 11.4113C16.9092 8.08797 15.1811 5.02463 14.9514 4.60639C14.0764 3.08037 12.6764 1.78043 11.1561 1.12481C9.77801 0.525707 9.17646 0.469189 4.36401 0.469189H0L0.0328121 2.80908ZM7.01086 3.18211V4.08641H6.13587H5.26088V3.18211V2.2778H6.13587H7.01086V3.18211Z"
              fill="#131111"
            />
            <path
              id="Vector_2"
              d="M37.6332 7.25178V8.60824H38.9457H40.2582V9.51255V10.4169H38.9348H37.6113L37.677 10.9481C37.7207 11.2533 37.7863 11.6603 37.8191 11.8524L37.8738 12.2255H39.5035H41.1332V13.1298V14.0341H39.8754H38.6066L38.9566 14.5654C39.7988 15.8427 41.2207 16.9731 42.6425 17.5044C43.4519 17.7983 43.7581 18.0808 43.7581 18.5556C43.7581 19.0304 43.4519 19.313 42.6425 19.6069C41.2207 20.1381 39.7988 21.2685 38.9566 22.5346L38.6066 23.0771H39.8754H41.1332V23.9814V24.8858H39.5035H37.8738L37.8191 25.2475C37.7863 25.4509 37.7207 25.8579 37.677 26.1518L37.6113 26.6944H38.9348H40.2582V27.5987V28.503H38.9457H37.6332V29.8594V31.2046L37.9394 31.1594C40.0722 30.809 40.98 30.5264 42.4675 29.7238C45.7378 27.9491 47.9909 24.8179 48.8112 20.8729C48.9862 20.0025 48.9862 17.12 48.8112 16.2383C48.0018 12.3046 45.7378 9.16213 42.4675 7.38743C40.98 6.58486 40.0722 6.30226 37.9394 5.95184L37.6332 5.89532V7.25178Z"
              fill="#131111"
            />
          </g>
        </svg>